<?xml version="1.0" encoding="UTF-8"?>
<svg width="1024px" height="1024px" viewBox="0 0 1024 1024" version="1.1" xmlns="http://www.w3.org/2000/svg" xmlns:xlink="http://www.w3.org/1999/xlink">
    <title>1024x1024@1x</title>
    <g id="1024x1024" stroke="none" stroke-width="1" fill="none" fill-rule="evenodd">
        <g id="Linova_Logo_blau" transform="translate(24.000000, 10.000000)" fill="#003E7A">
            <path d="M685.508255,1003 L457.005503,1003 C182.773167,1003 0,820.029101 0,545.863182 L0,0 L518.994497,0 C793.08166,0 976,182.970899 976,457.136818 L976,1003 L685.508255,1003 Z" id="Path"></path>
        </g>
        <circle id="Oval" stroke="#979797" fill="#FFFFFF" cx="512.488889" cy="262.931624" r="85.4316239"></circle>
        <circle id="Oval-Copy-2" stroke="#979797" fill="#FFFFFF" cx="166.388034" cy="633.02906" r="85.4316239"></circle>
        <circle id="Oval-Copy-3" stroke="#979797" fill="#FFFFFF" cx="856.965812" cy="633.02906" r="85.4316239"></circle>
        <line x1="167.169231" y1="633.810256" x2="427" y2="633" id="Line-Copy-2" stroke="#FFFFFF" stroke-width="50" stroke-linecap="square"></line>
        <line x1="627.169231" y1="633.810256" x2="887" y2="633" id="Line-Copy-3" stroke="#FFFFFF" stroke-width="50" stroke-linecap="square"></line>
        <line x1="167.169231" y1="633.810256" x2="512.5" y2="262.5" id="Line" stroke="#FFFFFF" stroke-width="50" stroke-linecap="square"></line>
        <line x1="857.5" y1="633.5" x2="520.5" y2="262.5" id="Line-Copy" stroke="#FFFFFF" stroke-width="50" stroke-linecap="square"></line>
        <g id="person-circle" transform="translate(344.000000, 432.000000)" fill="#FFFFFF" fill-rule="nonzero">
            <path d="M168,0 C75.3657692,0 0,75.3657692 0,168 C0,260.634231 75.3657692,336 168,336 C260.634231,336 336,260.634231 336,168 C336,75.3657692 260.634231,0 168,0 Z M127.437692,94.3546154 C137.671154,83.5073077 152.072308,77.5384615 168,77.5384615 C183.927692,77.5384615 198.199615,83.5476923 208.473462,94.4515385 C218.884615,105.500769 223.948846,120.346154 222.753462,136.306154 C220.362692,168 195.808846,193.846154 168,193.846154 C140.191154,193.846154 115.588846,168 113.246538,136.298077 C112.059231,120.208846 117.115385,105.315 127.437692,94.3546154 Z M168,310.153887 C129.659412,310.179176 92.9439911,294.671282 66.2307692,267.168462 C73.8033592,256.369324 83.4520064,247.187459 94.6130769,240.159231 C115.201154,226.961538 141.257308,219.692308 168,219.692308 C194.742692,219.692308 220.798846,226.961538 241.362692,240.159231 C252.533027,247.184218 262.190209,256.366366 269.769231,267.168462 C243.05814,294.674398 206.341336,310.182876 168,310.153887 Z" id="Shape"></path>
        </g>
    </g>
</svg>